# xmcd
#
# Track frame offsets:
#	150
#	17587
#	37151
#	55318
#	83745
#	100245
#	125657
#	149994
#	166798
#	181845
#	201157
#	216322
#
# Disc length: 3109 seconds
#
# Revision: 0
# Processed by: cddbd v1.5.1PL0 Copyright (c) Steve Scherf et al.
# Submitted via: dBpowerAMP V4.0
#
DISCID=b00c230c
DTITLE=John Mayall and The Bluesbreakers - Blues for the lost days
DYEAR=1900
DGENRE=
TTITLE0=Dead city
TTITLE1=Stone cold deal
TTITLE2=All those heroes
TTITLE3=Blues for the lost days
TTITLE4=Trenches
TTITLE5=One in a million
TTITLE6=How can you live like that
TTITLE7=Some other day
TTITLE8=I don't mind
TTITLE9=It ain't safe
TTITLE10=Sen-Say-Shun
TTITLE11=You are for real
EXTD=
EXTT0=
EXTT1=
EXTT2=
EXTT3=
EXTT4=
EXTT5=
EXTT6=
EXTT7=
EXTT8=
EXTT9=
EXTT10=
EXTT11=
PLAYORDER=
